<svg height="512pt" viewBox="0 -4 512.00048 512" width="512pt" xmlns="http://www.w3.org/2000/svg"><path d="m212.515625 106.09375 33.375 99.210938c1.964844 5.84375 9.773437 6.914062 13.234375 1.8125l58.8125-86.589844c3.109375-4.574219.328125-10.824219-5.15625-11.578125l-92.183594-12.621094c-5.484375-.75-9.847656 4.519531-8.082031 9.765625zm0 0" fill="#bdebff"/><path d="m238.40625 98.765625-17.808594-2.4375c-5.484375-.75-9.847656 4.519531-8.082031 9.765625l33.375 99.210938c1.964844 5.84375 9.773437 6.914062 13.234375 1.8125l10.519531-15.484376zm0 0" fill="#92d8ff"/><path d="m371.480469 121.433594 54.28125 89.5c3.199219 5.269531 11.046875 4.605468 13.3125-1.128906l38.433593-97.363282c2.03125-5.148437-2.054687-10.636718-7.566406-10.167968l-92.714844 7.863281c-5.511718.46875-8.613281 6.566406-5.746093 11.296875zm0 0" fill="#c17f8c"/><path d="m395.136719 108.617188-17.910157 1.519531c-5.511718.46875-8.613281 6.566406-5.746093 11.296875l54.28125 89.5c3.199219 5.269531 11.046875 4.605468 13.3125-1.128906l6.871093-17.414063zm0 0" fill="#b25f6f"/><path d="m205.152344 396.34375 70.945312 76.960938c4.179688 4.535156 11.742188 2.328124 12.824219-3.742188l18.371094-103.050781c.96875-5.445313-4.121094-10.015625-9.433594-8.464844l-89.316406 26.085937c-5.308594 1.550782-7.140625 8.140626-3.390625 12.210938zm0 0" fill="#ffde55"/><path d="m225.800781 379.09375-17.253906 5.035156c-5.3125 1.554688-7.144531 8.144532-3.394531 12.214844l70.945312 76.960938c4.179688 4.535156 11.742188 2.324218 12.824219-3.746094l3.285156-18.425782zm0 0" fill="#ffcd00"/><path d="m362.164062 339.078125 93.300782 47.445313c5.496094 2.796874 11.820312-1.90625 10.71875-7.972657l-18.652344-103c-.988281-5.441406-7.351562-7.957031-11.789062-4.652343l-74.648438 55.550781c-4.4375 3.300781-3.859375 10.121093 1.070312 12.628906zm0 0" fill="#f46262"/><path d="m375.515625 315.714844-14.421875 10.734375c-4.4375 3.300781-3.859375 10.121093 1.070312 12.628906l93.300782 47.445313c5.496094 2.796874 11.820312-1.90625 10.71875-7.972657l-3.335938-18.421875zm0 0" fill="#d65b5b"/><path d="m45.019531 394.808594 39.976563 96.738281c2.355468 5.699219 10.214844 6.238281 13.328125.917969l52.851562-90.351563c2.792969-4.777343-.40625-10.824219-5.925781-11.203125l-92.828125-6.386718c-5.519531-.378907-9.515625 5.171874-7.402344 10.285156zm0 0" fill="#7ec66a"/><path d="m70.355469 385.753906-17.933594-1.230468c-5.519531-.382813-9.515625 5.171874-7.402344 10.285156l39.976563 96.738281c2.355468 5.695313 10.214844 6.238281 13.328125.914063l9.453125-16.15625zm0 0" fill="#5aaa4f"/><path d="m63.105469 45.730469 2.335937 104.644531c.136719 6.164062 7.269532 9.507812 12.09375 5.671875l81.921875-65.160156c4.328125-3.445313 3.53125-10.242188-1.480469-12.589844l-84.25-39.484375c-5.011718-2.351562-10.742187 1.382812-10.621093 6.917969zm0 0" fill="#ff7956"/><path d="m90.003906 46.4375-16.277344-7.628906c-5.011718-2.347656-10.742187 1.386718-10.621093 6.917968l2.335937 104.648438c.136719 6.164062 7.269532 9.507812 12.09375 5.667969l14.652344-11.652344zm0 0" fill="#ff6243"/><path d="m411.894531 452.402344c0 13.808594-11.191406 25-25 25-13.804687 0-25-11.191406-25-25 0-13.804688 11.195313-25 25-25 13.808594 0 25 11.195312 25 25zm0 0" fill="#bdebff"/><path d="m381.898438 452.402344c0-10.25 6.171874-19.054688 15-22.914063-3.066407-1.335937-6.445313-2.085937-10-2.085937-13.808594 0-25 11.195312-25 25 0 13.808594 11.191406 25 25 25 3.554687 0 6.933593-.746094 10-2.085938-8.832032-3.855468-15-12.660156-15-22.914062zm0 0" fill="#92d8ff"/><path d="m383.089844 38.097656c0 13.804688-11.195313 24.996094-25 24.996094-13.808594 0-25-11.191406-25-24.996094 0-13.808594 11.191406-25 25-25 13.804687 0 25 11.191406 25 25zm0 0" fill="#ffde55"/><path d="m353.089844 38.097656c0-10.25 6.171875-19.058594 15-22.914062-3.0625-1.339844-6.445313-2.085938-10-2.085938-13.808594 0-25 11.191406-25 25 0 13.804688 11.191406 24.996094 25 24.996094 3.554687 0 6.9375-.746094 10-2.085938-8.828125-3.855468-15-12.660156-15-22.910156zm0 0" fill="#ffcd00"/><path d="m178.101562 266.199219c0 13.808593-11.195312 25-25 25-13.808593 0-25-11.191407-25-25 0-13.808594 11.191407-25 25-25 13.804688 0 25 11.191406 25 25zm0 0" fill="#c17f8c"/><path d="m148.101562 266.199219c0-10.25 6.171876-19.054688 15-22.914063-3.722656-1.625-7.910156-2.378906-12.3125-1.980468-12.179687 1.101562-21.90625 11.140624-22.644531 23.347656-.871093 14.507812 10.636719 26.546875 24.953125 26.546875 3.558594 0 6.9375-.746094 10-2.085938-8.824218-3.859375-14.996094-12.664062-14.996094-22.914062zm0 0" fill="#b25f6f"/><path d="m507.707031 205.566406c-3.75-1.773437-8.21875-.171875-9.988281 3.574219-.140625.292969-13.15625 27.390625-44.105469 61.148437-2.460937-5.019531-7.609375-8.371093-13.445312-8.371093-3.21875 0-6.300781 1.023437-8.90625 2.964843l-74.644531 55.546876c-4.179688 3.113281-6.414063 8.070312-5.976563 13.261718.425781 4.996094 3.257813 9.359375 7.605469 11.785156-13.910156 7.824219-28.4375 14.917969-43.429688 21.203126.398438-3.992188-.792968-7.972657-3.386718-11.066407-2.859376-3.414062-7.035157-5.375-11.453126-5.375-1.417968 0-2.839843.203125-4.21875.609375l-89.316406 26.085938c-5 1.460937-8.820312 5.332031-10.214844 10.351562-1.050781 3.777344-.585937 7.707032 1.210938 11.050782-12.511719 1.753906-25.3125 3.097656-38.28125 4.011718 1.019531-3.636718.625-7.546875-1.195312-10.992187-2.4375-4.609375-7-7.574219-12.195313-7.929688l-92.828125-6.386719c-5.195312-.359374-10.125 1.953126-13.167969 6.1875-3.042969 4.230469-3.671875 9.632813-1.683593 14.445313l.746093 1.808594c-9.984375-1.097657-20.105469-2.390625-30.230469-3.890625-4.101562-.613282-7.914062 2.222656-8.5195308 6.320312-.6054692 4.097656 2.2226568 7.910156 6.3203128 8.515625 13.082031 1.9375 26.148437 3.539063 38.941406 4.8125l32.722656 79.171875c2.183594 5.289063 7.085938 8.816406 12.796875 9.210938.351563.023437.703125.035156 1.050781.035156 5.304688 0 10.171876-2.769531 12.882813-7.40625l21.429687-36.632812c2.09375-3.578126.890626-8.171876-2.6875-10.261719-3.574218-2.089844-8.167968-.890625-10.257812 2.6875l-21.386719 36.558593-34.128906-82.441406c-.160156-.558594-.378906-1.09375-.65625-1.59375l-5.203125-12.5625 92.792969 6.320313-17.054688 29.160156c-2.089843 3.574219-.886719 8.167969 2.6875 10.261719 3.574219 2.089844 8.167969.886718 10.261719-2.6875l10.027344-17.148438c19.953125-1.089844 39.601562-3.15625 58.535156-6.160156l61.425781 66.636719c2.871094 3.113281 6.761719 4.828125 10.957031 4.828125h.003907c7.277343 0 13.488281-5.1875 14.761719-12.339844l15.46875-86.769531c21.796874-8.589844 42.746093-18.832031 62.398437-30.507813l77.898437 39.613282c2.140626 1.085937 4.421876 1.640624 6.78125 1.640624 4.4375 0 8.632813-1.972656 11.503907-5.410156 2.832031-3.394531 4.003906-7.851562 3.210937-12.230468l-16.140625-89.101563c37.667969-38.84375 53.195313-71.167969 53.851563-72.554687 1.773437-3.746094.171875-8.214844-3.570313-9.988282zm-226.15625 262.589844-63.339843-68.632812c-.429688-.632813-.945313-1.191407-1.535157-1.664063l-6.027343-6.527344 89.261718-26.136719zm96.460938-129.375c-.472657-.308594-.972657-.566406-1.5-.761719l-10.941407-5.554687 74.578126-55.574219 18.636718 102.910156zm0 0"/><path d="m55.902344 59.03125 2.039062 91.511719c.183594 8.207031 6.765625 14.636719 14.988282 14.636719 3.382812 0 6.59375-1.128907 9.277343-3.265626l70.480469-56.0625c18.214844 6.230469 37.421875 11.601563 57.214844 16l28.878906 85.84375c1.824219 5.421876 6.480469 9.273438 12.148438 10.050782.691406.09375 1.382812.140625 2.066406.140625 4.914062 0 9.511718-2.402344 12.332031-6.558594l21.878906-32.207031c2.328125-3.429688 1.4375-8.09375-1.988281-10.417969-3.429688-2.328125-8.09375-1.4375-10.417969 1.988281l-21.832031 32.136719-29.96875-88.914063c-.121094-.570312-.308594-1.121093-.554688-1.644531l-2.867187-8.511719 92.15625 12.554688-20.777344 30.59375c-2.328125 3.429688-1.4375 8.09375 1.988281 10.417969 3.425782 2.328125 8.089844 1.4375 10.417969-1.988281l13.023438-19.175782c14.558593.8125 29.492187 1.242188 44.640625 1.242188 3.761718 0 7.535156-.03125 11.316406-.082032l47.007812 77.503907c2.730469 4.507812 7.507813 7.199219 12.769532 7.199219 6.191406 0 11.660156-3.714844 13.929687-9.464844l32.660157-82.742188c8.859374-1.09375 17.875-2.3125 26.886718-3.648437 4.09375-.605469 6.925782-4.421875 6.320313-8.519531-.609375-4.097657-4.417969-6.925782-8.519531-6.316407-6.179688.914063-12.363282 1.769531-18.496094 2.578125 1.253906-4.273437.566406-8.898437-1.964844-12.613281-2.789062-4.101563-7.402344-6.550781-12.34375-6.550781-.421875 0-.851562.019531-1.289062.054687l-92.710938 7.863281c-5.195312.441407-9.707031 3.476563-12.070312 8.121094-1.863282 3.667969-2.125 7.824219-.824219 11.605469-12.824219.042969-25.511719-.214844-37.9375-.765625 1.386719-3.644531 1.304687-7.703125-.328125-11.371094-2.121094-4.761718-6.472656-8.027344-11.632813-8.734375l-92.1875-12.621093c-5.164062-.710938-10.230469 1.269531-13.554687 5.28125-2.609375 3.15625-3.773438 7.128906-3.351563 11.082031-13.136719-3.136719-25.964843-6.707031-38.363281-10.683594 2.582031-3.113281 3.808594-7.144531 3.324219-11.273437-.605469-5.175782-3.789063-9.585938-8.507813-11.800782l-84.253906-39.484375c-2.011719-.945312-4.148438-1.421875-6.34375-1.421875-3.996094 0-7.902344 1.644532-10.714844 4.519532-1.671875 1.714843-2.871094 3.757812-3.558594 5.980468-29.390624-20.839844-42.5625-37.804687-42.8125-38.128906-2.5-3.296875-7.199218-3.945312-10.5-1.449219-3.304687 2.5-3.957031 7.203125-1.457031 10.507813.691407.914062 16.96875 22.132812 54.382813 47.003906zm414.628906 50.65625-4.121094 10.445312c-.007812.011719-.011718.027344-.019531.039063l-34.261719 86.792969-48.765625-80.296875c-.246093-.539063-.554687-1.039063-.914062-1.5l-4.589844-7.558594zm-315.742188-24.671875-81.851562 65.101563-2.394531-104.515626zm0 0"/><path d="m386.894531 419.902344c-17.917969 0-32.5 14.582031-32.5 32.5 0 17.921875 14.582031 32.5 32.5 32.5 17.921875 0 32.5-14.578125 32.5-32.5 0-17.917969-14.578125-32.5-32.5-32.5zm0 50c-9.648437 0-17.5-7.851563-17.5-17.5 0-9.648438 7.851563-17.5 17.5-17.5 9.648438 0 17.5 7.851562 17.5 17.5 0 9.648437-7.847656 17.5-17.5 17.5zm0 0"/><path d="m358.089844 70.597656c17.917968 0 32.5-14.578125 32.5-32.5s-14.582032-32.5-32.5-32.5c-17.921875 0-32.5 14.578125-32.5 32.5s14.578125 32.5 32.5 32.5zm0-50c9.648437 0 17.5 7.851563 17.5 17.5 0 9.648438-7.851563 17.5-17.5 17.5-9.648438 0-17.5-7.851562-17.5-17.5 0-9.648437 7.847656-17.5 17.5-17.5zm0 0"/><path d="m120.601562 266.199219c0 17.921875 14.578126 32.5 32.5 32.5 17.917969 0 32.5-14.578125 32.5-32.5s-14.582031-32.5-32.5-32.5c-17.921874 0-32.5 14.578125-32.5 32.5zm50 0c0 9.648437-7.851562 17.5-17.5 17.5-9.648437 0-17.5-7.851563-17.5-17.5 0-9.648438 7.851563-17.5 17.5-17.5 9.648438 0 17.5 7.851562 17.5 17.5zm0 0"/></svg>